<?xml version="1.0" encoding="UTF-8" standalone="no"?>
<!DOCTYPE svg PUBLIC "-//W3C//DTD SVG 1.1//EN" "https://www.w3.org/Graphics/SVG/1.1/DTD/svg11.dtd">
<svg width="100%" height="100%" viewBox="0 0 15 15" version="1.1" xmlns="https://www.w3.org/2000/svg" xmlns:xlink="https://www.w3.org/1999/xlink" xml:space="preserve" style="fill-rule:evenodd;clip-rule:evenodd;stroke-linejoin:round;stroke-miterlimit:1.41421;">
    <g transform="matrix(4.44938,0,0,4.34021,-17.2723,-15.653)">
        <path d="M5.541,3.707L5.926,4.89L7.171,4.89L6.164,5.622L6.548,6.806L5.541,6.074L4.534,6.806L4.919,5.622L3.912,4.89L5.157,4.89L5.541,3.707Z" style="fill:rgb(251,227,0);"/>
        <path d="M5.926,4.89L7.171,4.89L6.164,5.622L6.548,6.806L5.541,6.074L4.534,6.806L4.919,5.622L3.912,4.89L5.157,4.89L5.541,3.707L5.926,4.89ZM5.191,4.938L4.059,4.938L4.974,5.603L4.624,6.682L5.541,6.015L6.459,6.682L6.108,5.603L7.024,4.938L5.892,4.938L5.541,3.859L5.191,4.938Z"/>
    </g>
</svg>
